<?xml version="1.0" encoding="us-ascii" standalone="no"?><svg xmlns="http://www.w3.org/2000/svg" xmlns:xlink="http://www.w3.org/1999/xlink" contentStyleType="text/css" height="709px" preserveAspectRatio="none" style="width:845px;height:709px;background:#FFFFFF;" version="1.1" viewBox="0 0 845 709" width="845px" zoomAndPan="magnify"><defs/><g><g id="elem_fps"><ellipse cx="33.7487" cy="56.5895" fill="#F1F1F1" rx="27.7487" ry="14.5236" style="stroke:#181818;stroke-width:0.5;"/><text fill="#000000" font-family="sans-serif" font-size="14" lengthAdjust="spacing" textLength="23" x="22.2487" y="59.4362">fps</text></g><g id="elem_communication"><ellipse cx="329.4563" cy="56.3572" fill="#F1F1F1" rx="76.9563" ry="17.7913" style="stroke:#181818;stroke-width:0.5;"/><text fill="#000000" font-family="sans-serif" font-size="14" lengthAdjust="spacing" textLength="111" x="271.0675" y="60.076">communication</text></g><g id="elem_fmac"><ellipse cx="664.4961" cy="56.6082" fill="#F1F1F1" rx="36.9961" ry="14.5423" style="stroke:#181818;stroke-width:0.5;"/><text fill="#000000" font-family="sans-serif" font-size="14" lengthAdjust="spacing" textLength="36" x="645.1301" y="59.9186">fmac</text></g><g id="elem_eaic"><ellipse cx="377.4914" cy="428.0895" fill="#F1F1F1" rx="31.9914" ry="14.5236" style="stroke:#181818;stroke-width:0.5;"/><text fill="#000000" font-family="sans-serif" font-size="14" lengthAdjust="spacing" textLength="29" x="362.9914" y="430.9362">eaic</text></g><g id="elem_ccu"><ellipse cx="329.4558" cy="166.5895" fill="#F1F1F1" rx="28.4558" ry="14.5236" style="stroke:#181818;stroke-width:0.5;"/><text fill="#000000" font-family="sans-serif" font-size="14" lengthAdjust="spacing" textLength="24" x="317.4558" y="169.4362">ccu</text></g><g id="elem_aggregation"><ellipse cx="127.3807" cy="550.5421" fill="#F1F1F1" rx="67.8807" ry="15.9761" style="stroke:#181818;stroke-width:0.5;"/><text fill="#000000" font-family="sans-serif" font-size="14" lengthAdjust="spacing" textLength="87" x="80.8807" y="554.2896">aggregation</text></g><g id="elem_extinguishing"><ellipse cx="303.6781" cy="305.2015" fill="#F1F1F1" rx="71.1781" ry="16.6356" style="stroke:#181818;stroke-width:0.5;"/><text fill="#000000" font-family="sans-serif" font-size="14" lengthAdjust="spacing" textLength="96" x="252.6781" y="308.9491">extinguishing</text></g><g id="elem_movement"><ellipse cx="474.5766" cy="304.9812" fill="#F1F1F1" rx="65.0766" ry="15.4153" style="stroke:#181818;stroke-width:0.5;"/><text fill="#000000" font-family="sans-serif" font-size="14" lengthAdjust="spacing" textLength="79" x="432.0766" y="308.7288">movement</text></g><g id="elem_situation"><ellipse cx="782.5799" cy="166.317" fill="#F1F1F1" rx="57.0799" ry="14.7511" style="stroke:#181818;stroke-width:0.5;"/><text fill="#000000" font-family="sans-serif" font-size="14" lengthAdjust="spacing" textLength="63" x="748.0799" y="170.0646">situation</text></g><g id="elem_navigation"><ellipse cx="127.7248" cy="688.7109" fill="#F1F1F1" rx="63.7248" ry="15.145" style="stroke:#181818;stroke-width:0.5;"/><text fill="#000000" font-family="sans-serif" font-size="14" lengthAdjust="spacing" textLength="75" x="87.2248" y="692.4584">navigation</text></g><!--link fps to communication--><g id="link_fps_communication"><path d="M61.0812,56.5659 C104.2806,56.5659 183.457,56.5659 246.324,56.5659 " fill="none" id="fps-to-communication" style="stroke:#181818;stroke-width:1.0;"/><polygon fill="#181818" points="252.324,56.5659,243.324,52.5659,247.324,56.5659,243.324,60.5659,252.324,56.5659" style="stroke:#181818;stroke-width:1.0;"/><text fill="#000000" font-family="sans-serif" font-size="13" lengthAdjust="spacing" textLength="86" x="113.75" y="19.6328">1. start at val</text><text fill="#000000" font-family="sans-serif" font-size="13" lengthAdjust="spacing" textLength="155" x="79.25" y="34.7656">(not_authentic_task val)</text><text fill="#000000" font-family="sans-serif" font-size="13" lengthAdjust="spacing" textLength="59" x="127.25" y="49.8984">(via http)</text></g><!--link communication to fps--><g id="link_communication_fps"><path d="M289.411,72.0969 C243.41,87.7579 165.921,107.5099 100.75,91.5659 C82.3398,87.0619 68.4228,79.7751 55.3418,71.4401 " fill="none" id="communication-to-fps" style="stroke:#181818;stroke-width:1.0;"/><polygon fill="#181818" points="50.2817,68.2159,55.7224,76.4256,54.4984,70.9028,60.0213,69.6788,50.2817,68.2159" style="stroke:#181818;stroke-width:1.0;"/><text fill="#000000" font-family="sans-serif" font-size="13" lengthAdjust="spacing" textLength="110" x="101.75" y="72.6328">31. started at val</text><text fill="#000000" font-family="sans-serif" font-size="13" lengthAdjust="spacing" textLength="59" x="127.25" y="87.7656">(via http)</text></g><!--link communication to fmac--><g id="link_communication_fmac"><path d="M406.776,56.5659 C475.953,56.5659 568.393,56.5659 621.353,56.5659 " fill="none" id="communication-to-fmac" style="stroke:#181818;stroke-width:1.0;"/><polygon fill="#181818" points="627.353,56.5659,618.353,52.5659,622.353,56.5659,618.353,60.5659,627.353,56.5659" style="stroke:#181818;stroke-width:1.0;"/><text fill="#000000" font-family="sans-serif" font-size="13" lengthAdjust="spacing" textLength="90" x="472" y="19.6328">2. StartAt(val)</text><text fill="#000000" font-family="sans-serif" font-size="13" lengthAdjust="spacing" textLength="115" x="459.5" y="34.7656">(true=in_progress</text><text fill="#000000" font-family="sans-serif" font-size="13" lengthAdjust="spacing" textLength="184" x="425" y="49.8984">3. false=not_authentic_task)</text></g><!--link fmac to eaic--><g id="link_fmac_eaic"><path d="M667.019,71.0809 C675.41,120.6599 697.168,294.2869 609.5,383.5659 C582.008,411.5629 471.8147,421.6469 415.0147,425.1369 " fill="none" id="fmac-to-eaic" style="stroke:#181818;stroke-width:1.0;"/><polygon fill="#181818" points="409.026,425.5049,418.2544,428.9454,414.0166,425.1983,417.7637,420.9605,409.026,425.5049" style="stroke:#181818;stroke-width:1.0;"/><text fill="#000000" font-family="sans-serif" font-size="13" lengthAdjust="spacing" textLength="130" x="674.5" y="239.6328">4. StartActionAt(val)</text></g><!--link fmac to ccu--><g id="link_fmac_ccu"><path d="M636.539,66.1909 C606.382,75.5249 556.978,90.9089 514.5,104.5659 C456.065,123.3539 393.1876,144.2609 358.2276,155.9459 " fill="none" id="fmac-to-ccu" style="stroke:#181818;stroke-width:1.0;"/><polygon fill="#181818" points="352.537,157.8479,362.3408,158.7886,357.2791,156.2629,359.8048,151.2012,352.537,157.8479" style="stroke:#181818;stroke-width:1.0;"/><text fill="#000000" font-family="sans-serif" font-size="13" lengthAdjust="spacing" textLength="130" x="515.5" y="117.6328">5. StartActionAt(val)</text></g><!--link eaic to aggregation--><g id="link_eaic_aggregation"><path d="M356.615,439.1329 C311.903,460.6839 212.2689,508.7078 161.4449,533.2048 " fill="none" id="eaic-to-aggregation" style="stroke:#181818;stroke-width:1.0;"/><polygon fill="#181818" points="156.04,535.8099,165.8842,535.5055,160.5441,533.639,162.4106,528.2989,156.04,535.8099" style="stroke:#181818;stroke-width:1.0;"/><text fill="#000000" font-family="sans-serif" font-size="13" lengthAdjust="spacing" textLength="57" x="335.5" y="485.6328">18. Get()</text><text fill="#000000" font-family="sans-serif" font-size="13" lengthAdjust="spacing" textLength="163" x="282.5" y="500.7656">(19. coordinates with val)</text></g><!--link eaic to extinguishing--><g id="link_eaic_extinguishing"><path d="M347.58,422.6759 C308.102,416.2019 241.913,402.7519 227.5,383.5659 C218.958,372.1949 220.487,363.9389 227.5,351.5659 C235.842,336.8499 245.6572,329.0152 260.2872,321.8592 " fill="none" id="eaic-to-extinguishing" style="stroke:#181818;stroke-width:1.0;"/><polygon fill="#181818" points="265.677,319.2229,255.8348,319.5842,261.1855,321.4198,259.3499,326.7706,265.677,319.2229" style="stroke:#181818;stroke-width:1.0;"/><text fill="#000000" font-family="sans-serif" font-size="13" lengthAdjust="spacing" textLength="105" x="228.5" y="364.6328">21. StartAction()</text><text fill="#000000" font-family="sans-serif" font-size="13" lengthAdjust="spacing" textLength="71" x="245.5" y="379.7656">(true/false)</text></g><!--link extinguishing to eaic--><g id="link_extinguishing_eaic"><path d="M316.532,321.5639 C323.452,330.1359 331.87,341.1369 338.5,351.5659 C351.717,372.3579 361.7656,392.7074 368.9076,408.1294 " fill="none" id="extinguishing-to-eaic" style="stroke:#181818;stroke-width:1.0;"/><polygon fill="#181818" points="371.429,413.5739,371.2766,403.7262,369.3279,409.0368,364.0173,407.0881,371.429,413.5739" style="stroke:#181818;stroke-width:1.0;"/><text fill="#000000" font-family="sans-serif" font-size="13" lengthAdjust="spacing" textLength="125" x="356.5" y="372.1328">15. ConfirmAction()</text></g><!--link extinguishing to eaic--><g id="link_extinguishing_eaic"><path d="M357.725,315.7529 C409.923,325.6269 482.164,340.9589 490.5,351.5659 C499.288,362.7479 498.55,371.8409 490.5,383.5659 C472.236,410.1679 441.1802,419.6154 414.4892,423.6304 " fill="none" id="extinguishing-to-eaic-1" style="stroke:#181818;stroke-width:1.0;"/><polygon fill="#181818" points="408.556,424.5229,418.0509,427.1397,413.5004,423.7792,416.8609,419.2287,408.556,424.5229" style="stroke:#181818;stroke-width:1.0;"/><text fill="#000000" font-family="sans-serif" font-size="13" lengthAdjust="spacing" textLength="103" x="497.5" y="372.1328">28. StopAction()</text></g><!--link ccu to aggregation--><g id="link_ccu_aggregation"><path d="M302.471,171.1799 C271.212,176.3079 219.108,187.8439 180.5,211.5659 C107.637,256.3359 80.0614,272.0849 48.5,351.5659 C21.3187,420.0169 80.146,497.2078 109.4654,530.1858 " fill="none" id="ccu-to-aggregation" style="stroke:#181818;stroke-width:1.0;"/><polygon fill="#181818" points="113.452,534.6699,110.4615,525.2861,110.1298,530.9332,104.4827,530.6015,113.452,534.6699" style="stroke:#181818;stroke-width:1.0;"/><text fill="#000000" font-family="sans-serif" font-size="13" lengthAdjust="spacing" textLength="49" x="106.5" y="364.6328">9. Get()</text><text fill="#000000" font-family="sans-serif" font-size="13" lengthAdjust="spacing" textLength="163" x="49.5" y="379.7656">(10. coordinates with val)</text></g><!--link ccu to movement--><g id="link_ccu_movement"><path d="M355.621,172.8739 C378.709,178.7759 411.971,190.3989 433.5,211.5659 C455.671,233.3639 465.4017,263.3991 470.1487,283.4651 " fill="none" id="ccu-to-movement" style="stroke:#181818;stroke-width:1.0;"/><polygon fill="#181818" points="471.53,289.3039,473.3506,279.6248,470.3789,284.4382,465.5655,281.4665,471.53,289.3039" style="stroke:#181818;stroke-width:1.0;"/><text fill="#000000" font-family="sans-serif" font-size="13" lengthAdjust="spacing" textLength="103" x="489" y="224.6328">11. MoveTo(val)</text><text fill="#000000" font-family="sans-serif" font-size="13" lengthAdjust="spacing" textLength="156" x="462.5" y="239.7656">12. calculate movement</text><text fill="#000000" font-family="sans-serif" font-size="13" lengthAdjust="spacing" textLength="96" x="492.5" y="254.8984">13. done at val</text></g><!--link ccu to extinguishing--><g id="link_ccu_extinguishing"><path d="M301.003,167.9749 C269.781,170.1389 221.017,178.9379 197.5,211.5659 C185.286,228.5119 186.006,241.1239 197.5,258.5659 C209.401,276.6259 224.4288,285.667 244.4138,292.257 " fill="none" id="ccu-to-extinguishing" style="stroke:#181818;stroke-width:1.0;"/><polygon fill="#181818" points="250.112,294.1359,242.8173,287.5187,245.3635,292.5701,240.3121,295.1163,250.112,294.1359" style="stroke:#181818;stroke-width:1.0;"/><text fill="#000000" font-family="sans-serif" font-size="13" lengthAdjust="spacing" textLength="105" x="198.5" y="239.6328">14. StartAction()</text></g><!--link ccu to extinguishing--><g id="link_ccu_extinguishing"><path d="M326.912,181.1529 C322.057,206.6429 312.7327,255.5959 307.5967,282.5589 " fill="none" id="ccu-to-extinguishing-1" style="stroke:#181818;stroke-width:1.0;"/><polygon fill="#181818" points="306.474,288.4529,312.0874,280.3604,307.4096,283.5412,304.2287,278.8634,306.474,288.4529" style="stroke:#181818;stroke-width:1.0;"/><text fill="#000000" font-family="sans-serif" font-size="13" lengthAdjust="spacing" textLength="103" x="321.5" y="239.6328">27. StopAction()</text></g><!--link ccu to situation--><g id="link_ccu_situation"><path d="M358.181,166.5659 C431.601,166.5659 621.423,166.5659 719.239,166.5659 " fill="none" id="ccu-to-situation" style="stroke:#181818;stroke-width:1.0;"/><polygon fill="#181818" points="725.239,166.5659,716.239,162.5659,720.239,166.5659,716.239,170.5659,725.239,166.5659" style="stroke:#181818;stroke-width:1.0;"/><text fill="#000000" font-family="sans-serif" font-size="13" lengthAdjust="spacing" textLength="141" x="471.25" y="144.6328">22. ActionInProgress()</text><text fill="#000000" font-family="sans-serif" font-size="13" lengthAdjust="spacing" textLength="95" x="494.25" y="159.7656">(23. true/false)</text></g><!--link ccu to communication--><g id="link_ccu_communication"><path d="M329.5,152.0179 C329.5,132.4779 329.5,102.3839 329.5,80.9179 " fill="none" id="ccu-to-communication" style="stroke:#181818;stroke-width:1.0;"/><polygon fill="#181818" points="329.5,74.9179,325.5,83.9179,329.5,79.9179,333.5,83.9179,329.5,74.9179" style="stroke:#181818;stroke-width:1.0;"/><text fill="#000000" font-family="sans-serif" font-size="13" lengthAdjust="spacing" textLength="114" x="330.5" y="117.6328">30. StartedAt(val)</text></g><!--link aggregation to navigation--><g id="link_aggregation_navigation"><path d="M127.5,566.6399 C127.5,593.0589 127.5,641.3698 127.5,667.2465 " fill="none" id="aggregation-to-navigation" style="stroke:#181818;stroke-width:1.0;"/><polygon fill="#181818" points="127.5,673.2465,131.5,664.2465,127.5,668.2465,123.5,664.2465,127.5,673.2465" style="stroke:#181818;stroke-width:1.0;"/><text fill="#000000" font-family="sans-serif" font-size="13" lengthAdjust="spacing" textLength="73" x="183" y="609.6328">6. 16. Get()</text><text fill="#000000" font-family="sans-serif" font-size="13" lengthAdjust="spacing" textLength="182" x="128.5" y="624.7656">8. check coordinates validity</text><text fill="#000000" font-family="sans-serif" font-size="13" lengthAdjust="spacing" textLength="169" x="135" y="639.8984">7. 17. coordinates with val</text></g><!--SRC=[VP9BRuCm48Jl_HLxX4De86bUKYfLFLGzLAhK7YD5bZ5W1Mo45zh- -wvvXa1xGi1uTkPREr5kN5WyWiDrbfLASePIAnSEu7jWa1K83A5YwKavIkEPbPW8XPAVaPcB_U7IdqeoI11pzsvaKnj76UFMB_3Wm_ezeTEUmg8KHwdEUQ7ZGXXpKYiF8fOQSPoEchMsuG-mwgAAS0WxHB81O67rWiawohgBmgrL6-XAntbfPG-pCclIo5XCiUC1sCw35u6EhURlFU1Q5w5K38M1Bua9t1mNtoXLN4gJqACcv8y6EXsZ-ve90U3bxE3zrTpbNtFxmvckH4PSwyWqyOtUFtMx4v-sn5dAovIEGoUbxxIPK2lHyXtS9YNyzKs9HZlRTskbEfyeZSIoRnTGf4RngjxRcr9t3IZJ1C_SJLujsqWYx9PuHR3feLWb1w8R3_nDJvNsoXF1BoEoP2D3YJydHItyxJpskr7dyINqwNezQnN98ki1_2CFTcDOlm00]--></g></svg>