<?xml version="1.0" encoding="us-ascii" standalone="no"?><svg xmlns="http://www.w3.org/2000/svg" xmlns:xlink="http://www.w3.org/1999/xlink" contentStyleType="text/css" height="724px" preserveAspectRatio="none" style="width:840px;height:724px;background:#FFFFFF;" version="1.1" viewBox="0 0 840 724" width="840px" zoomAndPan="magnify"><defs/><g><g id="elem_fps"><ellipse cx="33.7487" cy="56.5895" fill="#F1F1F1" rx="27.7487" ry="14.5236" style="stroke:#181818;stroke-width:0.5;"/><text fill="#000000" font-family="sans-serif" font-size="14" lengthAdjust="spacing" textLength="23" x="22.2487" y="59.4362">fps</text></g><g id="elem_communication"><ellipse cx="329.4563" cy="56.3572" fill="#F1F1F1" rx="76.9563" ry="17.7913" style="stroke:#181818;stroke-width:0.5;"/><text fill="#000000" font-family="sans-serif" font-size="14" lengthAdjust="spacing" textLength="111" x="271.0675" y="60.076">communication</text></g><g id="elem_fmac"><ellipse cx="664.4961" cy="56.6082" fill="#F1F1F1" rx="36.9961" ry="14.5423" style="stroke:#181818;stroke-width:0.5;"/><text fill="#000000" font-family="sans-serif" font-size="14" lengthAdjust="spacing" textLength="36" x="645.1301" y="59.9186">fmac</text></g><g id="elem_eaic"><ellipse cx="383.4914" cy="443.0895" fill="#F1F1F1" rx="31.9914" ry="14.5236" style="stroke:#181818;stroke-width:0.5;"/><text fill="#000000" font-family="sans-serif" font-size="14" lengthAdjust="spacing" textLength="29" x="368.9914" y="445.9362">eaic</text></g><g id="elem_ccu"><ellipse cx="329.4558" cy="181.5895" fill="#F1F1F1" rx="28.4558" ry="14.5236" style="stroke:#181818;stroke-width:0.5;"/><text fill="#000000" font-family="sans-serif" font-size="14" lengthAdjust="spacing" textLength="24" x="317.4558" y="184.4362">ccu</text></g><g id="elem_aggregation"><ellipse cx="137.3807" cy="565.5421" fill="#F1F1F1" rx="67.8807" ry="15.9761" style="stroke:#181818;stroke-width:0.5;"/><text fill="#000000" font-family="sans-serif" font-size="14" lengthAdjust="spacing" textLength="87" x="90.8807" y="569.2896">aggregation</text></g><g id="elem_extinguishing"><ellipse cx="298.6781" cy="320.2015" fill="#F1F1F1" rx="71.1781" ry="16.6356" style="stroke:#181818;stroke-width:0.5;"/><text fill="#000000" font-family="sans-serif" font-size="14" lengthAdjust="spacing" textLength="96" x="247.6781" y="323.9491">extinguishing</text></g><g id="elem_movement"><ellipse cx="469.5766" cy="319.9812" fill="#F1F1F1" rx="65.0766" ry="15.4153" style="stroke:#181818;stroke-width:0.5;"/><text fill="#000000" font-family="sans-serif" font-size="14" lengthAdjust="spacing" textLength="79" x="427.0766" y="323.7288">movement</text></g><g id="elem_situation"><ellipse cx="777.5799" cy="181.317" fill="#F1F1F1" rx="57.0799" ry="14.7511" style="stroke:#181818;stroke-width:0.5;"/><text fill="#000000" font-family="sans-serif" font-size="14" lengthAdjust="spacing" textLength="63" x="743.0799" y="185.0646">situation</text></g><g id="elem_navigation"><ellipse cx="137.7248" cy="703.7109" fill="#F1F1F1" rx="63.7248" ry="15.145" style="stroke:#181818;stroke-width:0.5;"/><text fill="#000000" font-family="sans-serif" font-size="14" lengthAdjust="spacing" textLength="75" x="97.2248" y="707.4584">navigation</text></g><!--link fps to communication--><g id="link_fps_communication"><path d="M61.0812,56.5659 C104.2806,56.5659 183.457,56.5659 246.324,56.5659 " fill="none" id="fps-to-communication" style="stroke:#181818;stroke-width:1.0;"/><polygon fill="#181818" points="252.324,56.5659,243.324,52.5659,247.324,56.5659,243.324,60.5659,252.324,56.5659" style="stroke:#181818;stroke-width:1.0;"/><text fill="#000000" font-family="sans-serif" font-size="13" lengthAdjust="spacing" textLength="86" x="113.75" y="19.6328">1. start at val</text><text fill="#000000" font-family="sans-serif" font-size="13" lengthAdjust="spacing" textLength="155" x="79.25" y="34.7656">(not_authentic_task val)</text><text fill="#000000" font-family="sans-serif" font-size="13" lengthAdjust="spacing" textLength="59" x="127.25" y="49.8984">(via http)</text></g><!--link communication to fps--><g id="link_communication_fps"><path d="M289.411,72.0969 C243.41,87.7579 165.921,107.5099 100.75,91.5659 C82.3398,87.0619 68.4228,79.7751 55.3418,71.4401 " fill="none" id="communication-to-fps" style="stroke:#181818;stroke-width:1.0;"/><polygon fill="#181818" points="50.2817,68.2159,55.7224,76.4256,54.4984,70.9028,60.0213,69.6788,50.2817,68.2159" style="stroke:#181818;stroke-width:1.0;"/><text fill="#000000" font-family="sans-serif" font-size="13" lengthAdjust="spacing" textLength="110" x="101.75" y="72.6328">31. started at val</text><text fill="#000000" font-family="sans-serif" font-size="13" lengthAdjust="spacing" textLength="59" x="127.25" y="87.7656">(via http)</text></g><!--link communication to fmac--><g id="link_communication_fmac"><path d="M406.776,56.5659 C475.953,56.5659 568.393,56.5659 621.353,56.5659 " fill="none" id="communication-to-fmac" style="stroke:#181818;stroke-width:1.0;"/><polygon fill="#181818" points="627.353,56.5659,618.353,52.5659,622.353,56.5659,618.353,60.5659,627.353,56.5659" style="stroke:#181818;stroke-width:1.0;"/><text fill="#000000" font-family="sans-serif" font-size="13" lengthAdjust="spacing" textLength="86" x="474" y="19.6328">2. start at val</text><text fill="#000000" font-family="sans-serif" font-size="13" lengthAdjust="spacing" textLength="115" x="459.5" y="34.7656">(true=in_progress</text><text fill="#000000" font-family="sans-serif" font-size="13" lengthAdjust="spacing" textLength="184" x="425" y="49.8984">3. false=not_authentic_task)</text></g><!--link fmac to eaic--><g id="link_fmac_eaic"><path d="M667.031,71.3289 C675.604,122.6429 698.153,304.6699 606.5,398.5659 C580.325,425.3819 476.1512,435.9326 421.0902,439.8086 " fill="none" id="fmac-to-eaic" style="stroke:#181818;stroke-width:1.0;"/><polygon fill="#181818" points="415.105,440.2299,424.3637,443.5881,420.0927,439.8788,423.8019,435.6078,415.105,440.2299" style="stroke:#181818;stroke-width:1.0;"/><text fill="#000000" font-family="sans-serif" font-size="13" lengthAdjust="spacing" textLength="108" x="674.5" y="247.1328">4. execute at val</text><text fill="#000000" font-family="sans-serif" font-size="13" lengthAdjust="spacing" textLength="71" x="693" y="262.2656">(true/false)</text></g><!--link fmac to ccu--><g id="link_fmac_ccu"><path d="M637.913,66.6779 C610.999,75.9679 568.228,90.9139 531.5,104.5659 C494.83,118.1959 486.089,122.7199 449.5,136.5659 C415.672,149.3669 381.9151,161.6664 357.7541,170.3944 " fill="none" id="fmac-to-ccu" style="stroke:#181818;stroke-width:1.0;"/><polygon fill="#181818" points="352.111,172.4329,361.9346,173.1372,356.8136,170.7341,359.2166,165.6131,352.111,172.4329" style="stroke:#181818;stroke-width:1.0;"/><text fill="#000000" font-family="sans-serif" font-size="13" lengthAdjust="spacing" textLength="108" x="532.5" y="117.6328">5. execute at val</text><text fill="#000000" font-family="sans-serif" font-size="13" lengthAdjust="spacing" textLength="71" x="551" y="132.7656">(true/false)</text></g><!--link eaic to aggregation--><g id="link_eaic_aggregation"><path d="M362.526,454.3399 C318.257,476.0239 220.6543,523.8335 170.8493,548.2305 " fill="none" id="eaic-to-aggregation" style="stroke:#181818;stroke-width:1.0;"/><polygon fill="#181818" points="165.461,550.8699,175.303,550.5029,169.9512,548.6704,171.7838,543.3186,165.461,550.8699" style="stroke:#181818;stroke-width:1.0;"/><text fill="#000000" font-family="sans-serif" font-size="13" lengthAdjust="spacing" textLength="127" x="308.5" y="500.6328">18. get_coordinates</text><text fill="#000000" font-family="sans-serif" font-size="13" lengthAdjust="spacing" textLength="163" x="290.5" y="515.7656">(19. coordinates with val)</text></g><!--link eaic to extinguishing--><g id="link_eaic_extinguishing"><path d="M351.373,442.6729 C317.139,441.3719 264.386,433.3579 238.5,398.5659 C230.01,387.1559 232.173,379.3039 238.5,366.5659 C245.13,353.2179 252.6737,345.9298 264.6377,338.4068 " fill="none" id="eaic-to-extinguishing" style="stroke:#181818;stroke-width:1.0;"/><polygon fill="#181818" points="269.717,335.2129,259.9688,336.6175,265.4843,337.8745,264.2273,343.3899,269.717,335.2129" style="stroke:#181818;stroke-width:1.0;"/><text fill="#000000" font-family="sans-serif" font-size="13" lengthAdjust="spacing" textLength="100" x="239.5" y="387.1328">21. start_action</text></g><!--link extinguishing to eaic--><g id="link_extinguishing_eaic"><path d="M316.445,336.3379 C325.556,344.6729 336.384,355.5239 344.5,366.5659 C359.179,386.5369 369.0457,407.287 375.7047,422.991 " fill="none" id="extinguishing-to-eaic" style="stroke:#181818;stroke-width:1.0;"/><polygon fill="#181818" points="378.047,428.5149,378.2161,418.6675,376.0951,423.9117,370.8509,421.7906,378.047,428.5149" style="stroke:#181818;stroke-width:1.0;"/><text fill="#000000" font-family="sans-serif" font-size="13" lengthAdjust="spacing" textLength="119" x="364.5" y="387.1328">15. confirm_action</text></g><!--link extinguishing to eaic--><g id="link_extinguishing_eaic"><path d="M353.739,330.4329 C407.955,340.1869 483.77,355.5519 492.5,366.5659 C501.334,377.7119 500.478,386.7919 492.5,398.5659 C475.184,424.1199 446.1048,433.661 420.4198,438.011 " fill="none" id="extinguishing-to-eaic-1" style="stroke:#181818;stroke-width:1.0;"/><polygon fill="#181818" points="414.504,439.0129,424.0456,441.4539,419.4338,438.178,422.7097,433.5662,414.504,439.0129" style="stroke:#181818;stroke-width:1.0;"/><text fill="#000000" font-family="sans-serif" font-size="13" lengthAdjust="spacing" textLength="98" x="499.5" y="387.1328">28. stop_action</text></g><!--link ccu to aggregation--><g id="link_ccu_aggregation"><path d="M302.207,185.9989 C270.971,190.9379 219.265,202.2799 181.5,226.5659 C112.082,271.2059 88.4507,289.2769 59.5,366.5659 C33.7098,435.4169 91.2056,512.3467 119.8438,545.2057 " fill="none" id="ccu-to-aggregation" style="stroke:#181818;stroke-width:1.0;"/><polygon fill="#181818" points="123.786,549.7289,120.8882,540.316,120.5009,545.9596,114.8573,545.5723,123.786,549.7289" style="stroke:#181818;stroke-width:1.0;"/><text fill="#000000" font-family="sans-serif" font-size="13" lengthAdjust="spacing" textLength="119" x="82.5" y="379.6328">9. get_coordinates</text><text fill="#000000" font-family="sans-serif" font-size="13" lengthAdjust="spacing" textLength="163" x="60.5" y="394.7656">(10. coordinates with val)</text></g><!--link ccu to movement--><g id="link_ccu_movement"><path d="M354.633,188.6559 C376.08,194.9809 406.533,206.7839 426.5,226.5659 C448.767,248.6269 459.2591,278.6019 464.5641,298.5799 " fill="none" id="ccu-to-movement" style="stroke:#181818;stroke-width:1.0;"/><polygon fill="#181818" points="466.104,304.3789,467.6602,294.6538,464.8208,299.5464,459.9282,296.707,466.104,304.3789" style="stroke:#181818;stroke-width:1.0;"/><text fill="#000000" font-family="sans-serif" font-size="13" lengthAdjust="spacing" textLength="101" x="484" y="239.6328">11. move to val</text><text fill="#000000" font-family="sans-serif" font-size="13" lengthAdjust="spacing" textLength="156" x="456.5" y="254.7656">12. calculate movement</text><text fill="#000000" font-family="sans-serif" font-size="13" lengthAdjust="spacing" textLength="96" x="486.5" y="269.8984">13. done at val</text></g><!--link ccu to extinguishing--><g id="link_ccu_extinguishing"><path d="M300.932,183.0669 C269.929,185.3299 221.75,194.2309 198.5,226.5659 C186.305,243.5259 187.194,256.0009 198.5,273.5659 C209.649,290.8879 223.5353,299.683 242.4023,306.387 " fill="none" id="ccu-to-extinguishing" style="stroke:#181818;stroke-width:1.0;"/><polygon fill="#181818" points="248.056,308.3959,240.9147,301.6134,243.3446,306.7218,238.2362,309.1517,248.056,308.3959" style="stroke:#181818;stroke-width:1.0;"/><text fill="#000000" font-family="sans-serif" font-size="13" lengthAdjust="spacing" textLength="100" x="199.5" y="254.6328">14. start_action</text></g><!--link ccu to extinguishing--><g id="link_ccu_extinguishing"><path d="M326.414,196.1529 C320.625,221.6429 309.4977,270.6389 303.3747,297.6019 " fill="none" id="ccu-to-extinguishing-1" style="stroke:#181818;stroke-width:1.0;"/><polygon fill="#181818" points="302.046,303.4529,307.9397,295.5622,303.1533,298.5771,300.1384,293.7906,302.046,303.4529" style="stroke:#181818;stroke-width:1.0;"/><text fill="#000000" font-family="sans-serif" font-size="13" lengthAdjust="spacing" textLength="98" x="319.5" y="254.6328">27. stop_action</text></g><!--link ccu to situation--><g id="link_ccu_situation"><path d="M358.206,181.5659 C430.916,181.5659 617.421,181.5659 714.221,181.5659 " fill="none" id="ccu-to-situation" style="stroke:#181818;stroke-width:1.0;"/><polygon fill="#181818" points="720.221,181.5659,711.221,177.5659,715.221,181.5659,711.221,185.5659,720.221,181.5659" style="stroke:#181818;stroke-width:1.0;"/><text fill="#000000" font-family="sans-serif" font-size="13" lengthAdjust="spacing" textLength="135" x="471.75" y="159.6328">22. is_action_running</text><text fill="#000000" font-family="sans-serif" font-size="13" lengthAdjust="spacing" textLength="95" x="491.75" y="174.7656">(23. true/false)</text></g><!--link ccu to communication--><g id="link_ccu_communication"><path d="M329.5,167.0139 C329.5,144.4819 329.5,105.3559 329.5,80.6689 " fill="none" id="ccu-to-communication" style="stroke:#181818;stroke-width:1.0;"/><polygon fill="#181818" points="329.5,74.6689,325.5,83.6689,329.5,79.6689,333.5,83.6689,329.5,74.6689" style="stroke:#181818;stroke-width:1.0;"/><text fill="#000000" font-family="sans-serif" font-size="13" lengthAdjust="spacing" textLength="110" x="330.5" y="125.1328">30. started at val</text></g><!--link aggregation to navigation--><g id="link_aggregation_navigation"><path d="M137.5,581.6399 C137.5,608.0589 137.5,656.3698 137.5,682.2465 " fill="none" id="aggregation-to-navigation" style="stroke:#181818;stroke-width:1.0;"/><polygon fill="#181818" points="137.5,688.2465,141.5,679.2465,137.5,683.2465,133.5,679.2465,137.5,688.2465" style="stroke:#181818;stroke-width:1.0;"/><text fill="#000000" font-family="sans-serif" font-size="13" lengthAdjust="spacing" textLength="143" x="158" y="624.6328">6. 16. get_coordinates</text><text fill="#000000" font-family="sans-serif" font-size="13" lengthAdjust="spacing" textLength="182" x="138.5" y="639.7656">8. check coordinates validity</text><text fill="#000000" font-family="sans-serif" font-size="13" lengthAdjust="spacing" textLength="169" x="145" y="654.8984">7. 17. coordinates with val</text></g><!--SRC=[XL9BReCm4Dtd5BCCYz10_f7IaqH2bcDWLB0H7jFqzXsJ4Y3GTeMmvtt7oxIo0QpUOIbDMJgDKX0Q7S0PeX0iYPf043IYkEgbDfG8HxdIX38XOJ_yHS0t3Gh8YQfWCQ9fYTDIICyNJ_YeTkg2EgbgazNAsglUX92AmghBL6gMsfi_mwQpgcuzUM_96u2LdrS2MolR4DHTIKTgREQj5HyYf7GUiFi7u8aV095nbAmlyHX2fYYHnjGtr88Kfrn6fn069_29bBTL3eZKdL1d3ctEdxQ_BcKYfATViBTPpTEivFetoITDQHfLSk6jRnRp_q3c4JVYzKbHI5Sm7BfHFkULtOpkUkdP9lwZxPp_sQG7Fscgrq6Bv9ufOpQ4zcSagPtMZEQWCHiQhgO3JzxtPltwQXQ38XyXj6YmBtOVGhIVAPTtB7CbFqO5Cn_UaBwkcjD4X_ds5wFiuqSQxJn6frYNNH5_JCV7KMVV]--></g></svg>